# xmcd
#
# Track frame offsets:
#	150
#	9155
#	17343
#	28807
#	40531
#	53031
#	63309
#	76419
#	85191
#	98244
#
# Disc length: 1456 seconds
#
# Revision: 1
# Processed by: cddbd v1.5.2PL0 Copyright (c) Steve Scherf et al.
# Submitted via: audiograbber 1.83.01
#
DISCID=6405ae0a
DTITLE=Dolly Parton and Porter Wagoner - We Found It
DYEAR=1973
DGENRE=Country
TTITLE0=Love City
TTITLE1=Between Us
TTITLE2=We Found It
TTITLE3=Satan's River
TTITLE4=I've Been Married Just as Long as You Have
TTITLE5=I Am Always Waiting
TTITLE6=Sweet Rachel Ann
TTITLE7=That's When Love Will Mean
TTITLE8=Love Have Mercy on Us
TTITLE9=How Close They Must Be
EXTD=
EXTT0=
EXTT1=
EXTT2=
EXTT3=
EXTT4=
EXTT5=
EXTT6=
EXTT7=
EXTT8=
EXTT9=
PLAYORDER=
